<svg xmlns="http://www.w3.org/2000/svg" viewBox="20 58 471 110" role="img" aria-label="SSHIP wordmark"><rect x="20" y="58" width="471" height="110" fill="#000000"/><path d="M316 -14C524 -14 626 90 626 212C626 470 229 390 229 497C229 532 259 560 342 560C403 560 469 542 536 506L597 653C528 693 434 714 343 714C135 714 33 612 33 487C33 227 431 308 431 197C431 163 399 140 317 140C236 140 148 168 86 209L21 63C87 17 201 -14 316 -14Z" fill="#A3E635" transform="translate(18.000 165.200) scale(0.150000 -0.150000)"/><path d="M316 -14C524 -14 626 90 626 212C626 470 229 390 229 497C229 532 259 560 342 560C403 560 469 542 536 506L597 653C528 693 434 714 343 714C135 714 33 612 33 487C33 227 431 308 431 197C431 163 399 140 317 140C236 140 148 168 86 209L21 63C87 17 201 -14 316 -14Z" fill="#A3E635" transform="translate(115.050 165.200) scale(0.150000 -0.150000)"/><path d="M538 0H736V700H538V437H268V700H70V0H268V273H538Z" fill="#A3E635" transform="translate(212.100 165.200) scale(0.150000 -0.150000)"/><path d="M70 0H268V700H70Z" fill="#FFFFFF" transform="translate(333.000 165.200) scale(0.150000 -0.150000)"/><path d="M70 0H268V183H390C581 183 701 282 701 441C701 601 581 700 390 700H70ZM268 339V544H378C460 544 501 506 501 441C501 377 460 339 378 339Z" fill="#FFFFFF" transform="translate(383.850 165.200) scale(0.150000 -0.150000)"/></svg>
